<svg width="49" height="65" viewBox="0 0 49 65" fill="none" xmlns="http://www.w3.org/2000/svg">
<path d="M13.056 20.7076L13.376 20.7396L13.696 20.8996L13.888 21.1556L13.952 21.2836L13.984 21.4756V32.9316L13.952 33.2196L13.76 33.5076L13.568 33.6676L13.12 33.8276L11.968 34.2116L11.136 34.5636L10.496 34.8516L9.792 35.2356L9.248 35.5556L8.48 36.0676L7.904 36.4836L7.36 36.9316L6.912 37.3156L6.656 37.5716L6.4 37.7956L6.112 38.0836L5.888 38.3396L5.76 38.4996H5.696L5.632 38.6276L5.248 39.0756L4.928 39.4916L4.48 40.0996L4.032 40.8036L3.648 41.4756L3.2 42.3396L2.848 43.1396L2.528 44.0036L2.24 44.9316L1.984 46.0196L1.824 46.9476L1.696 48.2916V49.9876L1.792 51.0436L1.984 52.2916L2.208 53.2196L2.432 53.9876L2.656 54.6596L3.008 55.5236L3.392 56.3556L3.776 57.0596L4.224 57.7956L4.512 58.2116L4.768 58.5636L5.088 58.9796L5.376 59.3316L5.76 59.7796L6.112 60.1636L6.688 60.7396L6.944 60.9636L7.264 61.2516L7.712 61.6036L8.032 61.8596L8.544 62.1796L9.216 62.4676L9.824 62.6276L10.272 62.6916L10.688 62.7236H24.48L25.28 62.6596L25.952 62.4996L26.528 62.2756L27.136 61.9236L27.552 61.6036L27.904 61.3156L28.224 61.0276L28.992 60.3236L29.28 60.0036L29.664 59.5876L29.952 59.2356L30.368 58.7236L30.688 58.2756L31.168 57.5396L31.488 56.9956L31.744 56.5476L32.096 55.8116L32.448 54.9796L32.768 54.0836L33.024 53.2196L33.216 52.3876L33.344 51.7156L33.472 50.7556L33.536 49.8596V48.3236L33.44 47.1396L33.28 46.1156L33.056 45.1236L32.832 44.3236L32.512 43.3956L32.16 42.5636L31.744 41.6996L31.328 40.9636L30.848 40.1956L30.496 39.7156L30.112 39.2036L29.344 38.3076L29.152 38.1156V38.0516L29.056 38.0196L28.832 37.7636L28.064 37.0596L27.616 36.7076L27.136 36.3236L26.496 35.8756L25.888 35.4916L25.152 35.0756L24.672 34.8196L23.904 34.4676L22.912 34.0836L21.76 33.6996L21.472 33.5076L21.312 33.2196L21.28 33.1556L21.248 32.4196V21.7316L21.28 21.3476L21.44 21.0276L21.696 20.8036L22.016 20.7076L22.336 20.7396L22.592 20.8676L22.816 21.1236L22.912 21.3476L22.944 32.3556L23.264 32.4196L24.064 32.7076L24.96 33.0916L25.76 33.4756L26.496 33.8916L27.136 34.2756L27.744 34.6916L28.352 35.1396L28.864 35.5556L29.216 35.8436L29.696 36.2916L30.112 36.6756L30.368 36.9316L30.592 37.1876L31.008 37.6356L31.296 37.9876L31.744 38.5636L32.16 39.1396L32.512 39.6836L32.992 40.4836L33.28 40.9956L33.632 41.7316L33.984 42.5316L34.208 43.1076L34.56 44.1956L34.848 45.3476L35.04 46.3716L35.168 47.3956L35.232 48.4836V49.7316L35.168 50.7876L35.008 52.0036L34.784 53.1556L34.528 54.1156L34.144 55.2676L33.792 56.1636L33.28 57.2196L32.96 57.8276L32.64 58.3716L32.064 59.2356L31.616 59.8436L31.296 60.2596L30.912 60.7076L30.624 61.0276L30.24 61.4436L29.696 61.9876L29.44 62.2116L29.088 62.5316L28.736 62.8196L28.256 63.2036L27.744 63.5236L27.072 63.8756L26.464 64.0996L25.856 64.2596L25.312 64.3556L24.32 64.4196H10.88L9.888 64.3556L9.216 64.2276L8.608 64.0356L8.128 63.8436L7.616 63.5876L7.104 63.2676L6.656 62.9156L6.144 62.4996L5.76 62.1476L5.44 61.8596L4.544 60.9636L4.256 60.6116L3.968 60.2916L3.616 59.8436L3.232 59.3316L2.72 58.5636L2.24 57.7636L1.856 57.0276L1.6 56.5156L1.28 55.7796L0.896 54.7556L0.608 53.7956L0.384 52.8676L0.192 51.8116L0.064 50.7236L0 49.7316V48.4196L0.064 47.4596L0.224 46.2436L0.448 45.1236L0.704 44.1636L1.088 43.0116L1.504 41.9876L2.016 40.9316L2.336 40.3556L2.72 39.7156L3.264 38.9156L3.648 38.4036L4 37.9556L4.352 37.5396L4.704 37.1556L4.832 36.9956H4.896L4.96 36.8676L5.568 36.2596L5.824 36.0356L6.176 35.7156L6.528 35.4276L7.104 34.9796L7.648 34.5956L8.224 34.2116L8.864 33.8276L9.6 33.4116L10.496 32.9956L11.104 32.7396L12 32.4196L12.288 32.3236L12.32 21.3796L12.448 21.0916L12.608 20.8996L12.896 20.7396L13.056 20.7076Z" fill="#671C59" fill-opacity="0.5"/>
<path d="M24.0001 43.9716H25.4721L26.5921 44.0676L27.4881 44.1956L28.3201 44.3556L29.3121 44.6116L30.4961 44.9956L31.3601 45.3476L32.0001 45.6356L32.2561 45.8596L32.3841 46.1156L32.5121 46.8196L32.6401 47.8756L32.6721 48.3876V49.8276L32.6081 50.7236L32.4481 51.8116L32.1921 52.9636L31.9041 53.9236L31.5841 54.7876L31.2961 55.4596L31.0401 55.9716L30.6561 56.6756L30.2401 57.3476L29.8241 57.9556L29.4081 58.4996L28.9601 59.0436L28.4801 59.5556L27.7761 60.2596L27.3281 60.6116L26.8481 60.9316L26.1121 61.3156L25.4081 61.5716L24.7361 61.7316L24.0961 61.8276L23.2961 61.8596H12.0641L11.1041 61.8276L10.4641 61.7316L9.72806 61.5396L9.21606 61.3476L8.60806 61.0596L8.09606 60.7396L7.71206 60.4516L7.23206 60.0356L6.59206 59.3956L6.36806 59.1396L5.98406 58.6916L5.56806 58.1476L5.15206 57.5716L4.76806 56.9636L4.38406 56.2916L4.00006 55.5556L3.61606 54.6596L3.36006 53.9876L3.07206 53.0276L2.84806 52.0996L2.65606 50.9156L2.56006 49.7636V48.5156L2.65606 47.3636L2.81606 46.3076L2.91206 45.9876L3.10406 45.7316L3.39206 45.5716L3.45606 45.5396H3.84006L4.99206 45.9236L5.95206 46.2116L6.84806 46.4356L7.84006 46.6276L8.76806 46.7556L9.95206 46.8516H11.5521L12.7681 46.7556L13.9841 46.5636L15.2321 46.2756L16.2881 45.9556L17.2801 45.6036L18.4001 45.1556L19.5521 44.7716L20.3201 44.5476L21.2801 44.3236L22.1441 44.1636L23.1361 44.0356L24.0001 43.9716ZM23.9681 45.6356L22.9121 45.7316L21.8881 45.8916L20.9921 46.0836L19.8721 46.4036L18.8481 46.7556L17.9841 47.1076L16.8321 47.5236L15.8721 47.8116L15.1041 48.0036L13.9841 48.2276L12.8641 48.3876L11.7121 48.4836H9.66406L8.57606 48.3876L7.64806 48.2596L6.75206 48.0996L5.79206 47.8756L4.96006 47.6516L4.44806 47.4916H4.32006L4.25606 48.0356L4.22406 48.5156V49.7956L4.32006 50.8196L4.48006 51.7796L4.67206 52.6116L4.92806 53.4116L5.18406 54.1156L5.56806 54.9796L5.98406 55.7796L6.33606 56.3556L6.75206 56.9636L7.16806 57.5076L7.55206 57.9556L7.77606 58.2116L8.25606 58.7236L8.64006 59.0756L9.12006 59.4276L9.63206 59.7156L10.1761 59.9396L10.6241 60.0676L11.1681 60.1636L11.5841 60.1956H23.6481L24.3521 60.1316L24.9921 59.9716L25.6001 59.7156L26.0801 59.4596L26.5601 59.1076L27.0401 58.6596L27.4561 58.2436L27.6801 57.9876L27.9361 57.6996L28.3521 57.1556L28.7041 56.6756L29.0241 56.1636L29.3441 55.6196L29.7281 54.8836L30.0801 54.0836L30.4001 53.1876L30.6561 52.2596L30.8481 51.3316L30.9761 50.3396L31.0081 49.9556V48.3236L30.9121 47.2676L30.8481 46.9476L30.5921 46.8196L29.7601 46.4996L28.7681 46.1796L27.7121 45.9236L27.0081 45.7956L26.2721 45.6996L25.4081 45.6356H23.9681Z" fill="#671C59" fill-opacity="0.5"/>
<path d="M32.96 0.419571H33.216L33.504 0.515571L33.792 0.771571L33.92 1.05957V1.41157L33.792 1.69957L33.6 1.95557L33.344 2.14757L33.536 2.37157L46.784 15.6196L47.008 15.8756L47.36 16.3236L47.68 16.8356L47.936 17.3476L48.128 17.8276L48.288 18.3716L48.384 18.8836L48.448 19.5876V19.9396L48.384 20.6436L48.224 21.3796L48.032 21.9556L47.68 22.6916L47.392 23.1396L47.104 23.5236L46.72 23.9396L46.432 24.2276L45.984 24.5796L45.536 24.8676L44.864 25.2196L44 25.5076L43.36 25.6356L42.72 25.6996H42.176L41.408 25.6036L40.64 25.4116L40 25.1556L39.392 24.8356L38.848 24.4516L38.496 24.1316L38.24 23.9076L24.96 10.6276L24.832 10.6916L24.512 11.0116L24.256 11.1396L24.128 11.1716H23.808L23.552 11.0756L23.36 10.9156L23.168 10.5316V10.1796L23.264 9.92357L23.552 9.60357L32.576 0.579571L32.832 0.451571L32.96 0.419571ZM32.096 3.39557L26.112 9.37957L26.176 9.50757L31.2 14.5316H31.264L31.296 14.6276L31.424 14.6596L32.928 14.0516L36.352 12.6756L39.552 11.3956L39.936 11.2356V11.1396L39.264 10.4676L39.072 10.2436H39.008L38.944 10.1156L37.664 8.83557H37.6L37.536 8.70757H37.472L37.408 8.57957L36.896 8.06757H36.832L36.768 7.93957H36.704L36.64 7.81157H36.576L36.512 7.68357H36.448L36.384 7.55557H36.32L36.256 7.42757H36.192L36.128 7.29957H36.064L36 7.17157H35.936L35.872 7.04357H35.808L35.744 6.91557H35.68L35.616 6.78757H35.552L35.488 6.65957H35.424L35.36 6.53157L35.136 6.33957L34.976 6.14757L34.752 5.95557L34.592 5.76357L34.336 5.53957L33.6 4.80357L33.44 4.61157L33.312 4.48357H33.248L33.184 4.35557H33.12L33.056 4.22757H32.992L32.928 4.09957L32.672 3.87557L32.448 3.65157L32.352 3.52357H32.288L32.224 3.39557H32.096ZM41.216 12.4836L38.336 13.6356L37.152 14.1156L34.592 15.1396L32.864 15.8436L32.64 15.9076L32.704 16.0356L39.52 22.8516L39.872 23.1396L40.288 23.4276L40.768 23.6836L41.28 23.8756L41.856 24.0036L42.144 24.0356H42.88L43.456 23.9396L44 23.7796L44.672 23.4596L45.088 23.1716L45.504 22.8196L45.888 22.4036L46.208 21.9236L46.464 21.4116L46.624 20.9316L46.752 20.3556L46.784 20.0356V19.5236L46.688 18.8196L46.496 18.1796L46.24 17.6676L46.048 17.3476L45.728 16.9316L45.472 16.6756L45.248 16.4196L44.576 15.7476H44.512L44.448 15.6196H44.384L44.32 15.4916L44.096 15.2996L42.304 13.5076L42.272 13.4436H42.208L42.144 13.3156H42.08L42.016 13.1876L41.856 13.0596L41.632 12.8036H41.568L41.504 12.6756L41.312 12.4836H41.216Z" fill="#671C59" fill-opacity="0.5"/>
<path d="M29.248 5.95557L29.312 5.98757L29.248 6.11557H29.152L29.12 6.24357L28.96 6.43557H28.896L28.832 6.56357H28.768L28.704 6.69157L28.512 6.91557H28.448L28.384 7.04357H28.32L28.352 7.17157L26.144 9.37957L26.208 9.50757L31.2 14.4996L31.36 14.6276L31.68 14.5316L32.928 14.0196L35.712 12.8996L35.776 12.9316L35.68 13.1236L35.552 13.1876L35.36 13.1556L35.296 13.2836L35.2 13.3156L35.136 13.2836V13.3476L35.232 13.3796L35.136 13.4116L35.008 13.6996L34.784 13.8276L34.496 13.8916L34.336 14.1476L34.4 14.3716L34.496 14.4036L34.912 14.2436H35.168L35.456 14.1476L35.616 14.1796L35.584 14.2756L35.392 14.3716H35.328L35.36 14.4996H35.296L35.264 14.4356L35.136 14.5956L35.104 14.6596L35.296 14.6916L35.328 14.7876L35.2 14.8516L35.072 14.9796L32.864 15.8756L32.64 15.9076L32.864 16.1636L39.52 22.8196L39.872 23.1076L40.288 23.3956L40.768 23.6516L41.28 23.8436L41.856 23.9716L42.144 24.0036H42.88L43.456 23.9076L44 23.7476L44.672 23.4276L44.864 23.2996H44.928L44.992 23.4276L45.024 23.3956H45.216L45.088 23.5236L45.248 23.4596H45.344L45.312 23.6196L45.216 23.6516V23.7156L45.056 23.8116L44.896 23.8436L44.8 23.9396L44.736 23.9716L44.672 24.2916V24.4196H44.736L44.864 24.2916L44.992 24.2276L45.12 24.2596H45.248L45.504 24.0356L45.6 24.0036L45.536 24.1316H45.472V24.1956L45.344 24.2276L45.312 24.3556H45.248L45.184 24.4836L45.12 24.6756H45.056L45.088 24.7716L45.312 24.7076L45.472 24.6436L45.536 24.4836H45.632L45.952 24.3556L46.048 24.2916L46.208 24.3236L46.112 24.4836L45.696 24.7716L45.184 25.0596L44.704 25.2836L44 25.5076L43.36 25.6356L42.72 25.6996H42.176L41.408 25.6036L40.64 25.4116L40 25.1556L39.392 24.8356L38.848 24.4516L38.496 24.1316L38.24 23.9076L24.96 10.6276L24.832 10.6916L24.512 11.0116L24.256 11.1396L24.128 11.1716H23.808L23.552 11.0756L23.36 10.9156L23.168 10.5316V10.1796L23.264 9.92357L23.552 9.60357L26.368 6.78757L26.4 6.85157L26.624 6.75557L26.944 6.46757L27.168 6.40357L27.232 6.43557V6.62757H27.168V6.69157H27.232V6.78757H27.296V6.85157L27.424 6.78757L27.456 6.72357H27.52V6.65957H27.584V6.59557L27.936 6.43557H28.032L28.096 6.27557L28.16 6.17957L28.32 6.11557L28.192 6.43557V6.49957L28.48 6.40357H28.544V6.33957L28.768 6.37157L28.8 6.27557H28.928V6.21157L29.056 6.17957L29.12 6.05157H29.216L29.248 5.95557Z" fill="#671C59" fill-opacity="0.5"/>
<path d="M22.016 20.7076L22.336 20.7396L22.592 20.8676L22.816 21.1236L22.912 21.3476L22.944 32.3556L23.264 32.4196L24.064 32.7076L24.96 33.0916L25.76 33.4756L26.496 33.8916L27.136 34.2756L27.744 34.6916L28.352 35.1396L28.864 35.5556L29.216 35.8436L29.696 36.2916L30.112 36.6756L30.368 36.9316L30.592 37.1876L31.008 37.6356L31.296 37.9876L31.744 38.5636L32.16 39.1396L32.512 39.6836L32.992 40.4836L33.28 40.9956L33.632 41.7316L33.984 42.5316L34.208 43.1076L34.56 44.1956L34.848 45.3476L35.04 46.3716L35.104 46.8516V47.0756L34.944 47.0116L34.848 46.7236L34.88 46.4036L34.752 46.2116L34.656 46.0196L34.592 45.6676L34.4 45.6996L34.496 45.8276L34.432 46.0516L34.336 46.2116L34.304 46.4996L34.272 46.5636L34.08 46.5956L34.144 46.7556L34.016 46.7876L33.824 46.4356L33.792 46.7236L33.824 46.9476H33.888L33.856 47.2996L33.792 47.7156L33.824 47.9076L33.792 48.0676L33.888 48.5156L33.856 48.7716L33.76 49.2516L33.792 49.4116L33.76 49.6676L33.664 49.7636H33.568L33.536 48.3236L33.44 47.1396L33.28 46.1156L33.056 45.1236L32.832 44.3236L32.512 43.3956L32.16 42.5636L31.744 41.6996L31.328 40.9636L30.848 40.1956L30.496 39.7156L30.112 39.2036L29.344 38.3076L29.152 38.1156V38.0516L29.056 38.0196L28.832 37.7636L28.064 37.0596L27.616 36.7076L27.136 36.3236L26.496 35.8756L25.888 35.4916L25.152 35.0756L24.672 34.8196L23.904 34.4676L22.912 34.0836L21.76 33.6996L21.472 33.5076L21.312 33.2196L21.28 33.1556L21.248 32.4196V21.7316L21.28 21.3476L21.44 21.0276L21.696 20.8036L22.016 20.7076Z" fill="#671C59" fill-opacity="0.5"/>
<path d="M11.84 13.5396H23.328L23.712 13.6356L24.096 13.8276L24.352 14.0516L24.64 14.4676L24.8 14.9156L24.832 15.3316V17.0596L24.8 17.6356L24.672 18.0516L24.48 18.3716L24.224 18.6596L23.872 18.8836L23.488 19.0116L23.328 19.0436L22.464 19.0756H12.224L11.68 19.0116L11.296 18.8516L11.008 18.6276L10.784 18.4036L10.528 17.9556L10.432 17.5716V14.9796L10.56 14.5636L10.784 14.1796L11.104 13.8596L11.424 13.6676L11.84 13.5396ZM12.128 15.1716L12.096 15.2036V17.4116H23.136L23.168 17.3156V15.2036L23.136 15.1716H12.128Z" fill="#671C59" fill-opacity="0.5"/>
<path d="M19.168 47.4596H19.776L20.256 47.5556L20.704 47.7476L21.12 48.0356L21.44 48.3236L21.76 48.7716L21.92 49.1236L22.048 49.5396L22.08 49.7316V50.4356L21.952 50.9796L21.696 51.4916L21.472 51.7796L21.248 52.0356L20.8 52.3556L20.32 52.5796L19.744 52.7076H19.136L18.592 52.5796L18.08 52.3236L17.728 52.0676L17.408 51.7476L17.12 51.2996L16.96 50.9156L16.864 50.5636L16.832 50.3716V49.7956L16.928 49.3156L17.152 48.8036L17.44 48.3876L17.632 48.1636L18.016 47.8756L18.368 47.6836L18.784 47.5236L19.168 47.4596ZM19.232 49.1236L18.944 49.2516L18.688 49.4756L18.528 49.7956L18.496 49.9556V50.2436L18.624 50.5956L18.848 50.8516L19.168 51.0116L19.264 51.0436H19.68L20.064 50.8516L20.32 50.5636L20.416 50.3076V49.8596L20.288 49.5716L20.064 49.3156L19.808 49.1556L19.68 49.1236H19.232Z" fill="#671C59" fill-opacity="0.5"/>
<path d="M13.568 53.8276H14.464L14.944 53.9556L15.456 54.2116L15.808 54.4996L16.096 54.7876L16.32 55.1396L16.512 55.5556L16.64 56.0356V56.8356L16.512 57.3156L16.256 57.8276L16 58.1796L15.712 58.4676L15.264 58.7556L14.912 58.9156L14.592 59.0116L14.368 59.0436H13.632L13.12 58.9156L12.608 58.6596L12.192 58.3396L11.936 58.0516L11.68 57.6356L11.52 57.2836L11.424 56.9316L11.392 56.7076V56.1956L11.488 55.6836L11.68 55.2036L11.968 54.7876L12.256 54.4676L12.64 54.1796L13.088 53.9556L13.568 53.8276ZM13.856 55.4596L13.536 55.5876L13.312 55.7476L13.12 56.0676L13.056 56.2916V56.5796L13.184 56.9316L13.44 57.2196L13.76 57.3796L14.112 57.4116L14.432 57.3156L14.72 57.1236L14.88 56.9316L14.976 56.6756V56.1956L14.848 55.9076L14.624 55.6516L14.304 55.4916L14.112 55.4596H13.856Z" fill="#671C59" fill-opacity="0.5"/>
<path d="M24.8 53.3796L25.312 53.4116L25.824 53.5396L26.336 53.7956L26.656 54.0516L26.816 54.2116L27.072 54.4996L27.328 54.9476L27.488 55.4596L27.552 55.9076L27.52 56.4516L27.392 56.9316L27.136 57.4436L26.912 57.7316L26.528 58.1156L26.112 58.3716L25.6 58.5636L25.312 58.6276H24.48L24 58.4996L23.488 58.2436L23.2 58.0196L22.848 57.6676L22.56 57.2196L22.368 56.7396L22.304 56.4516L22.272 56.1636V55.8756L22.336 55.4276L22.496 54.9476L22.688 54.5956L22.912 54.3076L23.136 54.0516L23.584 53.7316L24.064 53.5076L24.48 53.4116L24.8 53.3796ZM24.768 55.0436L24.416 55.1716L24.16 55.3956L24 55.6516L23.936 55.9396L23.968 56.2596L24.096 56.5476L24.32 56.8036L24.64 56.9636L24.96 56.9956L25.344 56.8996L25.6 56.7076L25.76 56.5156L25.856 56.2916L25.888 56.1316V55.9076L25.792 55.5876L25.664 55.3956L25.408 55.1716L25.056 55.0436H24.768Z" fill="#671C59" fill-opacity="0.5"/>
<path d="M11.648 15.1396L11.776 15.1716L11.936 15.2036L12 15.2996V15.7156L12.064 16.1636V17.4116H14.048L14.08 17.5716L14.592 17.6356L14.688 17.6676L14.72 17.7956L14.976 17.9236L15.072 18.0196L15.232 18.0836V18.1156L15.072 18.1476L15.488 18.3076L15.68 18.3396V18.3716L15.488 18.4036L15.712 18.4676L16.032 18.5316V18.6276L15.872 18.5956L15.808 18.7236L15.2 18.7556L15.008 18.8196L14.784 18.9156L14.56 18.9476L14.528 19.0116L14.24 19.0756H12.224L11.68 19.0116L11.296 18.8516L11.008 18.6276L10.784 18.4036L10.528 17.9556L10.432 17.5716V15.6516L10.464 15.7156H10.528L10.624 15.9716L10.656 15.8756L10.72 15.4276L10.816 15.2036L10.944 15.1716L11.072 15.2356H11.552L11.648 15.1396Z" fill="#671C59" fill-opacity="0.5"/>
<path d="M13.0559 20.7076L13.3759 20.7396L13.6959 20.8996L13.8879 21.1556L13.9519 21.2836L13.9839 21.4756V22.7876H13.9199V25.3476L13.8879 25.4116V25.7956L13.8559 26.3396L13.7919 26.4356L13.7279 26.2756L13.6959 25.7636L13.7279 25.1236L13.6319 25.0916V24.7716L13.4079 24.7396L13.2479 24.6756L13.1199 24.6436L13.0239 24.4516L12.8639 24.3236L12.8319 24.1956H12.7359V24.4196L12.7039 24.5476L12.6719 25.1876L12.7039 25.3796L12.6719 26.3396L12.6399 26.8196L12.5119 27.1716L12.5759 27.2036L12.4479 27.2356L12.3839 27.0116L12.3519 25.2836L12.3199 24.7396V21.3796L12.4479 21.0916L12.6079 20.8996L12.8959 20.7396L13.0559 20.7076Z" fill="#671C59" fill-opacity="0.5"/>
<path d="M22.016 20.7076L22.336 20.7396L22.592 20.8676L22.816 21.1236L22.912 21.3476V24.5796L22.88 26.0836L22.848 26.5956H22.784L22.72 26.2756V25.8916L22.688 25.8276V25.4756L22.624 25.0596V24.7396L22.592 24.5156L22.528 24.3236H22.464L22.4 24.0996H22.304L22.24 24.2596L22.272 24.5476L22.176 24.5796L22.112 24.2916H21.92L21.888 24.3236L22.048 24.4516L22.016 24.5796V24.4836L21.792 24.5156L21.696 24.3556H21.632L21.504 25.0276L21.472 25.6996H21.408L21.344 26.0196L21.312 26.0516L21.28 32.4196H21.248V21.7316L21.28 21.3476L21.44 21.0276L21.696 20.8036L22.016 20.7076Z" fill="#671C59" fill-opacity="0.5"/>
<path d="M30.592 45.1556H30.656V45.2196L30.752 45.1876L30.816 45.2196V45.2836H30.976L31.2 45.3476L31.296 45.3156L32 45.6356L32.256 45.8596L32.352 46.0836L32 46.1156L31.936 46.0196L31.712 45.9556V45.8916L31.36 45.8596L31.232 45.8276L31.2 45.7636L30.912 45.6676L30.688 45.5716L30.72 45.4756L30.592 45.4116H30.656L30.624 45.2836L30.592 45.1556Z" fill="#671C59" fill-opacity="0.5"/>
<path d="M37.984 21.3796L38.208 21.5716L38.368 21.6676L39.52 22.8196L39.872 23.1076L40.288 23.3956L40.32 23.5236L40.384 23.5556V23.6196H40.512V23.7156L40.672 23.7476L40.64 23.8116L40.576 23.8436L40.224 23.6196L40.064 23.5236L39.84 23.3636L39.296 22.8196L39.104 22.5956L38.944 22.4356L38.88 22.3076L38.752 22.2436V22.1796L38.624 22.1156L38.464 21.9236L38.272 21.7636L38.08 21.5396L37.984 21.4436V21.3796Z" fill="#671C59" fill-opacity="0.5"/>
<path d="M23.712 9.85956L23.872 9.92356L23.968 10.0836L24 10.1476H24.256L24.16 10.2436L24.192 10.3076L23.968 10.4036L23.84 10.5316L23.712 10.5956V10.7876L23.552 10.7556L23.424 10.5316L23.392 10.4996L23.424 10.1796H23.488L23.552 10.0196L23.68 9.95556L23.712 9.85956Z" fill="#671C59" fill-opacity="0.5"/>
<path d="M37.6 23.1716L37.632 23.2356L37.76 23.2996V23.3636L37.888 23.4276L38.176 23.6836V23.7476L38.304 23.8116L38.496 24.0036L38.592 24.0356V24.0996H38.656V24.1636H38.72V24.2276L38.88 24.2596V24.3236L39.008 24.3556L39.2 24.5156V24.6116L39.04 24.5796L38.688 24.3236L38.144 23.8116L37.6 23.2676V23.1716Z" fill="#671C59" fill-opacity="0.5"/>
<path d="M28.9921 12.3876L29.1201 12.4196L30.8481 14.1476V14.2436L30.7841 14.2116L30.2081 13.6356V13.5716L30.0801 13.5076V13.4436L29.9521 13.3796V13.3156L29.8241 13.2516V13.1876L29.6961 13.1236V13.0596L29.5681 12.9956V12.9316L29.4401 12.8676V12.8036L29.3121 12.7396V12.6756L29.1841 12.6116V12.5476L29.0561 12.4836V12.4196L28.9921 12.3876Z" fill="#671C59" fill-opacity="0.5"/>
<path d="M32.8319 16.1636L33.0559 16.3556L33.4719 16.7716L33.5359 16.8996L33.6959 17.0596V17.1236L33.8239 17.1876L33.8879 17.2836L33.7599 17.2196L33.5359 17.0276V16.9636L33.4079 16.8996L33.1839 16.6436L33.1199 16.6116L33.0559 16.4836L32.8319 16.3236L32.7999 16.1956L32.8319 16.1636Z" fill="#671C59" fill-opacity="0.5"/>
<path d="M28.9921 12.3876L29.1201 12.4196L29.9841 13.2836L29.8881 13.3156L29.8241 13.1876L29.6961 13.1236V13.0596L29.5681 12.9956V12.9316L29.4401 12.8676V12.8036L29.3121 12.7396V12.6756L29.1841 12.6116V12.5476L29.0561 12.4836V12.4196L28.9921 12.3876Z" fill="#671C59" fill-opacity="0.5"/>
<path d="M13.824 26.4676H13.856V27.0756L13.792 27.1076L13.728 27.0756L13.696 26.9156L13.728 26.8516V26.5956L13.824 26.4676Z" fill="#671C59" fill-opacity="0.5"/>
<path d="M37.248 20.6436L37.44 20.7396L37.888 21.1876L37.856 21.2836L37.632 21.0916L37.472 20.8996L37.248 20.7076V20.6436Z" fill="#671C59" fill-opacity="0.5"/>
<path d="M34.048 17.4436L34.176 17.4756L34.752 18.0516H34.656L34.464 17.8916L34.432 17.8276L34.304 17.7636L34.176 17.6356V17.5396L34.048 17.5076V17.4436Z" fill="#671C59" fill-opacity="0.5"/>
<path d="M35.2 48.4836H35.232V49.7316H35.2L35.168 48.8356L35.104 48.7076L35.136 48.6436H35.2V48.4836Z" fill="#671C59" fill-opacity="0.5"/>
<path d="M45.7919 24.5476L45.9199 24.6116L45.5999 24.8356L45.4399 24.8996V24.8356H45.5039L45.5359 24.7396L45.6319 24.7076L45.7919 24.5476Z" fill="#671C59" fill-opacity="0.5"/>
<path d="M45.632 22.6596L45.696 22.6916L45.344 23.0436L45.312 23.1396H45.184L45.248 23.0116L45.632 22.6596Z" fill="#671C59" fill-opacity="0.5"/>
<path d="M30.464 13.7956L30.688 13.9876L30.848 14.1476V14.2436L30.784 14.2116L30.464 13.8916V13.7956Z" fill="#671C59" fill-opacity="0.5"/>
<path d="M28.9921 12.3876L29.1201 12.4196L29.4721 12.7716L29.3761 12.8036L29.3121 12.6756L29.1841 12.6116V12.5476L29.0561 12.4836V12.4196L28.9921 12.3876Z" fill="#671C59" fill-opacity="0.5"/>
<path d="M32.8321 15.6836H32.9921L33.0561 15.7796L32.8641 15.8756H32.7681L32.8321 15.6836Z" fill="#671C59" fill-opacity="0.5"/>
<path d="M32.256 46.1156H32.352H32.384L32.416 46.4036L32.288 46.3396V46.2756L32.224 46.2436L32.256 46.1156Z" fill="#671C59" fill-opacity="0.5"/>
<path d="M37.8879 21.2196L38.1119 21.4116L38.2719 21.6036L38.1439 21.5396L38.0159 21.4116L37.8879 21.3796V21.2196Z" fill="#671C59" fill-opacity="0.5"/>
<path d="M35.4561 18.8516L35.5841 18.8836L35.7761 19.1076L35.7121 19.1716L35.5841 19.0436V18.9476L35.4561 18.9156V18.8516Z" fill="#671C59" fill-opacity="0.5"/>
<path d="M37.248 20.6436L37.44 20.7396L37.632 20.9636L37.472 20.8996L37.248 20.7076V20.6436Z" fill="#671C59" fill-opacity="0.5"/>
<path d="M28.5759 6.81957L28.6399 6.88357L28.3839 7.13957L28.3199 7.10757V7.04357L28.5759 6.81957Z" fill="#671C59" fill-opacity="0.5"/>
</svg>
