<?xml version="1.0" standalone="no"?>
<!DOCTYPE svg PUBLIC "-//W3C//DTD SVG 20010904//EN"
 "http://www.w3.org/TR/2001/REC-SVG-20010904/DTD/svg10.dtd">
<svg version="1.0" xmlns="http://www.w3.org/2000/svg"
 width="314.000000pt" height="329.000000pt" viewBox="0 0 314.000000 329.000000"
 preserveAspectRatio="xMidYMid meet">

<g transform="translate(0.000000,329.000000) scale(0.100000,-0.100000)"
fill="#000000" stroke="none">
<path d="M1147 2628 c-3 -7 -152 -357 -332 -778 -180 -421 -329 -771 -332
-778 -4 -9 42 -12 210 -12 l214 0 41 98 c22 53 56 134 76 180 l35 82 -99 115
-100 114 147 3 146 3 116 285 c98 241 117 280 119 250 2 -19 1 -162 -3 -317
l-7 -283 -174 0 c-96 0 -174 -3 -174 -6 0 -3 73 -87 163 -187 l162 -181 5 -64
c5 -60 14 -22 149 593 l143 656 -90 117 -89 117 -161 3 c-122 2 -161 -1 -165
-10z"/>
<path d="M1560 2624 c0 -3 34 -50 75 -103 41 -54 75 -107 75 -117 0 -10 -65
-314 -144 -674 -79 -360 -143 -656 -142 -657 1 -1 184 -3 407 -3 l404 -1 -1
40 0 39 45 -23 c62 -30 91 -39 91 -26 0 6 -22 22 -48 35 -48 24 -48 25 -47 73
1 54 5 56 77 23 l43 -19 22 92 c12 51 24 106 28 124 l6 32 -125 -65 -125 -65
-40 27 c-23 15 -41 30 -41 34 0 4 43 26 96 49 53 23 105 48 117 56 47 33 -17
14 -120 -35 -57 -28 -107 -50 -109 -50 -3 0 -11 14 -18 31 -12 29 -14 30 -29
14 -10 -9 -17 -32 -17 -54 l0 -38 -80 -2 c-66 -1 -80 1 -80 14 0 12 35 180 65
313 5 21 11 22 86 22 l81 0 201 148 202 147 -248 3 c-154 1 -247 6 -247 12 0
11 58 275 66 303 5 14 18 17 86 17 l81 0 -7 -37 c-3 -21 -9 -55 -12 -75 l-7
-38 191 0 191 0 10 38 c5 20 26 114 46 207 20 94 38 176 40 183 4 9 -115 12
-570 12 -316 0 -575 -3 -575 -6z"/>
<path d="M2571 1802 c-7 -18 -34 -51 -60 -73 -40 -36 -46 -45 -46 -84 l-1 -43
39 32 c57 45 89 105 85 158 l-3 43 -14 -33z"/>
<path d="M2600 1707 c-7 -17 -32 -51 -54 -75 -34 -37 -41 -51 -41 -88 l-1 -44
49 47 c55 54 77 96 77 147 0 46 -13 52 -30 13z"/>
<path d="M2070 1499 c0 -5 5 -7 10 -4 6 3 10 8 10 11 0 2 -4 4 -10 4 -5 0 -10
-5 -10 -11z"/>
</g>
</svg>
